<svg version="1.1" id="Layer_1" xmlns="http://www.w3.org/2000/svg" xmlns:xlink="http://www.w3.org/1999/xlink" x="0px" y="0px"
	 width="100%" viewBox="0 0 93 142" enable-background="new 0 0 93 142" xml:space="preserve">
<path fill="#F8F9FB" opacity="1.000000" stroke="none" 
	d="
M94.000000,11.000000 
	C94.000000,47.687561 94.000000,84.375122 93.594055,121.536461 
	C69.273079,128.347031 45.355064,134.672714 21.459757,141.083038 
	C20.845928,141.247711 20.481005,142.340210 20.000000,143.000000 
	C17.958334,143.000000 15.916667,143.000000 13.427828,142.531418 
	C13.034060,105.424217 13.087467,68.785591 13.535393,32.109875 
	C23.215120,29.673954 32.526733,27.372080 41.778912,24.851988 
	C53.583767,21.636600 65.340607,18.244926 77.510956,14.951204 
	C83.269180,13.648781 88.634590,12.324390 94.000000,11.000000 
M63.859695,116.418747 
	C63.859695,112.106506 63.859695,107.794266 63.859695,102.890839 
	C56.951019,104.717834 50.541656,106.341393 44.193897,108.177902 
	C43.360237,108.419090 42.286102,109.736946 42.265759,110.578896 
	C42.106571,117.167534 42.177608,123.761742 42.177608,130.829025 
	C47.334190,129.463394 51.823772,128.321075 56.286694,127.082649 
	C65.247040,124.596237 63.688053,126.431046 63.859695,116.418747 
M55.183910,25.668159 
	C50.887585,26.809084 46.591259,27.950008 42.405251,29.061638 
	C42.405251,36.568111 42.405251,43.645412 42.405251,51.263519 
	C49.721996,49.304447 56.675804,47.442554 63.516617,45.610912 
	C63.516617,38.081448 63.516617,31.043383 63.516617,23.550772 
	C60.728317,24.224331 58.345043,24.800049 55.183910,25.668159 
M46.740997,81.219414 
	C45.216362,82.009232 42.417648,82.728806 42.369614,83.600029 
	C42.001045,90.284828 42.167091,96.999107 42.167091,104.494484 
	C49.369442,102.545959 55.571171,100.913551 61.734051,99.145706 
	C62.542004,98.913933 63.746719,98.001053 63.760319,97.381523 
	C63.907082,90.693703 63.851875,84.001457 63.851875,76.809235 
	C57.756222,78.396629 52.654877,79.725082 46.740997,81.219414 
M42.034237,73.158363 
	C41.933319,75.611496 42.201195,77.612404 45.565182,76.669167 
	C50.663021,75.239777 55.821568,74.015793 60.876690,72.453400 
	C62.056042,72.088898 63.761082,70.749031 63.799305,69.800522 
	C64.058151,63.376740 63.934475,56.937542 63.934475,49.681007 
	C57.155849,51.526943 51.089966,52.992989 45.178860,54.931087 
	C43.852947,55.365826 42.299019,57.385666 42.177315,58.790737 
	C41.791603,63.243633 42.033939,67.750931 42.034237,73.158363 
M35.092934,84.241798 
	C29.083191,85.898277 23.073450,87.554756 17.168118,89.182449 
	C17.168118,96.694901 17.168118,103.768692 17.168118,111.338562 
	C24.428680,109.365692 31.348501,107.485413 38.276634,105.602867 
	C38.276634,99.057594 38.387630,93.091164 38.172451,87.136520 
	C38.134529,86.087204 36.732681,85.087173 35.092934,84.241798 
M16.947275,119.753532 
	C16.947275,125.486061 16.947275,131.218597 16.947275,137.578873 
	C23.891209,135.729538 30.114500,134.144974 36.274467,132.343811 
	C37.087971,132.105942 38.113628,130.775772 38.133503,129.930161 
	C38.287537,123.376602 38.218479,116.817787 38.218479,109.734436 
	C31.437695,111.572784 25.347929,113.054832 19.403866,114.985474 
	C18.286850,115.348282 17.751427,117.501701 16.947275,119.753532 
M25.998413,33.396400 
	C23.916508,33.958309 21.741179,34.307247 19.788538,35.163822 
	C18.658400,35.659580 17.114479,36.944832 17.078838,37.922947 
	C16.839180,44.500111 16.954056,51.090195 16.954056,58.087090 
	C23.643433,56.287724 29.727264,54.709293 35.763580,52.966309 
	C36.692013,52.698219 38.087769,51.690983 38.106190,50.994862 
	C38.283802,44.282124 38.212666,37.562809 38.212666,30.346022 
	C33.838722,31.424826 30.314816,32.293976 25.998413,33.396400 
M22.244728,60.744434 
	C20.498522,61.702740 17.315369,62.561115 17.240641,63.635662 
	C16.775337,70.326416 17.006113,77.065590 17.006113,84.312378 
	C23.859877,82.459663 29.946884,80.879997 35.978172,79.110435 
	C36.847729,78.855301 38.059753,77.702187 38.079079,76.938461 
	C38.245682,70.353714 38.174877,63.762959 38.174877,56.587036 
	C32.621449,58.014053 27.825787,59.246349 22.244728,60.744434 
M89.057159,80.512253 
	C89.057159,77.098900 89.057159,73.685555 89.057159,69.857834 
	C82.352242,71.658081 76.267418,73.207664 70.251923,74.991043 
	C69.266342,75.283234 67.900444,76.583946 67.873772,77.454193 
	C67.673340,83.995377 67.764549,90.545494 67.764549,97.627144 
	C71.958878,96.574974 75.317993,95.768227 78.657707,94.887871 
	C89.059959,92.145790 89.057114,92.134979 89.057159,80.512253 
M74.325485,68.979263 
	C78.172791,67.951241 82.096642,67.134239 85.826118,65.781403 
	C87.141678,65.304184 88.834312,63.559006 88.895737,62.320389 
	C89.207283,56.037952 89.039246,49.731739 89.039246,42.880554 
	C82.331329,44.667595 76.097145,46.261448 69.920097,48.052353 
	C69.075691,48.297173 67.935570,49.510010 67.916122,50.298920 
	C67.754684,56.845253 67.824638,63.397289 67.824638,70.459137 
	C70.310036,69.882736 71.902840,69.513336 74.325485,68.979263 
M87.600754,38.920994 
	C88.246666,31.785286 88.892570,24.649580 89.623703,16.572432 
	C82.196732,18.564394 76.316078,20.051704 70.509048,21.785603 
	C69.514816,22.082470 68.148170,23.409878 68.119675,24.298611 
	C67.914391,30.701340 68.009705,37.113708 68.009705,44.258160 
	C74.798553,42.423317 80.800934,40.801037 87.600754,38.920994 
M87.475975,97.096809 
	C81.701302,98.456245 75.890251,99.687012 70.187164,101.299629 
	C69.217407,101.573853 68.128448,103.466049 68.087944,104.644890 
	C67.877922,110.756279 67.990250,116.878738 67.990250,123.692162 
	C74.668617,121.970116 80.868225,120.450661 87.000519,118.695984 
	C87.821426,118.461098 88.858925,117.032135 88.851151,116.164597 
	C88.795158,109.914673 88.495399,103.666931 87.475975,97.096809 
z"/>
<path fill="#D9D9D9" opacity="1.000000" stroke="none" 
	d="
M13.140874,32.146973 
	C13.087467,68.785591 13.034060,105.424217 12.990328,142.531418 
	C12.250000,143.000000 11.500000,143.000000 10.664797,142.716248 
	C7.386395,140.288330 4.193197,138.144165 1.000000,136.000000 
	C1.000000,98.645775 1.000000,61.291542 1.310723,23.783377 
	C2.702261,23.302505 3.831167,23.084599 4.856664,22.632256 
	C19.760447,16.058220 34.654701,9.462425 49.517776,2.797225 
	C49.875275,2.636909 49.847878,1.618291 50.000000,1.000000 
	C51.388889,1.000000 52.777779,1.000000 54.582943,1.416618 
	C55.007309,3.221863 55.015400,4.610489 54.700836,6.156074 
	C38.019371,13.067465 21.660557,19.821898 4.174575,27.041729 
	C6.464778,28.099781 7.720802,28.680052 9.126119,29.514301 
	C9.832802,29.956936 10.390192,30.145592 11.028666,30.632050 
	C11.786790,31.335556 12.463832,31.741264 13.140874,32.146973 
z"/>
<path fill="#000000" opacity="1.000000" stroke="none" 
	d="
M20.468658,143.000000 
	C20.481005,142.340210 20.845928,141.247711 21.459757,141.083038 
	C45.355064,134.672714 69.273079,128.347031 93.594055,122.005119 
	C94.000000,128.967606 94.000000,135.935211 94.000000,143.000000 
	C69.645851,143.000000 45.291584,143.000000 20.468658,143.000000 
z"/>
<path fill="#000000" opacity="1.000000" stroke="none" 
	d="
M49.531342,1.000000 
	C49.847878,1.618291 49.875275,2.636909 49.517776,2.797225 
	C34.654701,9.462425 19.760447,16.058220 4.856664,22.632256 
	C3.831167,23.084599 2.702261,23.302505 1.310723,23.314720 
	C1.000000,15.712156 1.000000,8.424314 1.000000,1.000000 
	C17.020672,1.000000 33.041676,1.000000 49.531342,1.000000 
z"/>
<path fill="#000000" opacity="1.000000" stroke="none" 
	d="
M55.023491,5.999114 
	C55.015400,4.610489 55.007309,3.221863 54.999611,1.416618 
	C68.000092,1.000000 81.000191,1.000000 94.000000,1.000000 
	C94.000000,4.085402 94.000000,7.056136 94.000000,10.513435 
	C88.634590,12.324390 83.269180,13.648781 77.459656,14.526071 
	C77.015533,12.466009 77.015533,10.853049 77.015533,8.756372 
	C74.667397,9.207420 72.843086,9.557848 71.010292,9.506279 
	C71.357994,6.326425 70.117821,5.423804 67.544365,6.246846 
	C66.013214,6.736538 64.524895,7.360177 63.001072,7.528512 
	C62.872620,5.871248 62.760406,4.609068 62.605503,2.866699 
	C59.806210,4.023192 57.414848,5.011153 55.023491,5.999114 
z"/>
<path fill="#000000" opacity="1.000000" stroke="none" 
	d="
M1.000000,136.497910 
	C4.193197,138.144165 7.386395,140.288330 10.289797,142.716248 
	C7.095965,143.000000 4.191930,143.000000 1.000000,143.000000 
	C1.000000,141.002838 1.000000,138.999329 1.000000,136.497910 
z"/>
<path fill="#628CBD" opacity="1.000000" stroke="none" 
	d="
M63.859619,116.897263 
	C63.688053,126.431046 65.247040,124.596237 56.286694,127.082649 
	C51.823772,128.321075 47.334190,129.463394 42.177608,130.829025 
	C42.177608,123.761742 42.106571,117.167534 42.265759,110.578896 
	C42.286102,109.736946 43.360237,108.419090 44.193897,108.177902 
	C50.541656,106.341393 56.951019,104.717834 63.859695,102.890839 
	C63.859695,107.794266 63.859695,112.106506 63.859619,116.897263 
z"/>
<path fill="#274A73" opacity="1.000000" stroke="none" 
	d="
M55.572838,25.521965 
	C58.345043,24.800049 60.728317,24.224331 63.516617,23.550772 
	C63.516617,31.043383 63.516617,38.081448 63.516617,45.610912 
	C56.675804,47.442554 49.721996,49.304447 42.405251,51.263519 
	C42.405251,43.645412 42.405251,36.568111 42.405251,29.061638 
	C46.591259,27.950008 50.887585,26.809084 55.572838,25.521965 
z"/>
<path fill="#DADADA" opacity="1.000000" stroke="none" 
	d="
M47.147263,81.136475 
	C52.654877,79.725082 57.756222,78.396629 63.851875,76.809235 
	C63.851875,84.001457 63.907082,90.693703 63.760319,97.381523 
	C63.746719,98.001053 62.542004,98.913933 61.734051,99.145706 
	C55.571171,100.913551 49.369442,102.545959 42.167091,104.494484 
	C42.167091,96.999107 42.001045,90.284828 42.369614,83.600029 
	C42.417648,82.728806 45.216362,82.009232 47.147263,81.136475 
z"/>
<path fill="#DADADA" opacity="1.000000" stroke="none" 
	d="
M42.033836,72.697777 
	C42.033939,67.750931 41.791603,63.243633 42.177315,58.790737 
	C42.299019,57.385666 43.852947,55.365826 45.178860,54.931087 
	C51.089966,52.992989 57.155849,51.526943 63.934475,49.681007 
	C63.934475,56.937542 64.058151,63.376740 63.799305,69.800522 
	C63.761082,70.749031 62.056042,72.088898 60.876690,72.453400 
	C55.821568,74.015793 50.663021,75.239777 45.565182,76.669167 
	C42.201195,77.612404 41.933319,75.611496 42.033836,72.697777 
z"/>
<path fill="#224670" opacity="1.000000" stroke="none" 
	d="
M35.526817,84.153091 
	C36.732681,85.087173 38.134529,86.087204 38.172451,87.136520 
	C38.387630,93.091164 38.276634,99.057594 38.276634,105.602867 
	C31.348501,107.485413 24.428680,109.365692 17.168118,111.338562 
	C17.168118,103.768692 17.168118,96.694901 17.168118,89.182449 
	C23.073450,87.554756 29.083191,85.898277 35.526817,84.153091 
z"/>
<path fill="#4975A9" opacity="1.000000" stroke="none" 
	d="
M16.947449,119.291183 
	C17.751427,117.501701 18.286850,115.348282 19.403866,114.985474 
	C25.347929,113.054832 31.437695,111.572784 38.218479,109.734436 
	C38.218479,116.817787 38.287537,123.376602 38.133503,129.930161 
	C38.113628,130.775772 37.087971,132.105942 36.274467,132.343811 
	C30.114500,134.144974 23.891209,135.729538 16.947275,137.578873 
	C16.947275,131.218597 16.947275,125.486061 16.947449,119.291183 
z"/>
<path fill="#3A6291" opacity="1.000000" stroke="none" 
	d="
M26.394661,33.279762 
	C30.314816,32.293976 33.838722,31.424826 38.212666,30.346022 
	C38.212666,37.562809 38.283802,44.282124 38.106190,50.994862 
	C38.087769,51.690983 36.692013,52.698219 35.763580,52.966309 
	C29.727264,54.709293 23.643433,56.287724 16.954056,58.087090 
	C16.954056,51.090195 16.839180,44.500111 17.078838,37.922947 
	C17.114479,36.944832 18.658400,35.659580 19.788538,35.163822 
	C21.741179,34.307247 23.916508,33.958309 26.394661,33.279762 
z"/>
<path fill="#5F89BC" opacity="1.000000" stroke="none" 
	d="
M22.637428,60.611542 
	C27.825787,59.246349 32.621449,58.014053 38.174877,56.587036 
	C38.174877,63.762959 38.245682,70.353714 38.079079,76.938461 
	C38.059753,77.702187 36.847729,78.855301 35.978172,79.110435 
	C29.946884,80.879997 23.859877,82.459663 17.006113,84.312378 
	C17.006113,77.065590 16.775337,70.326416 17.240641,63.635662 
	C17.315369,62.561115 20.498522,61.702740 22.637428,60.611542 
z"/>
<path fill="#3A6291" opacity="1.000000" stroke="none" 
	d="
M89.057159,81.001770 
	C89.057114,92.134979 89.059959,92.145790 78.657707,94.887871 
	C75.317993,95.768227 71.958878,96.574974 67.764549,97.627144 
	C67.764549,90.545494 67.673340,83.995377 67.873772,77.454193 
	C67.900444,76.583946 69.266342,75.283234 70.251923,74.991043 
	C76.267418,73.207664 82.352242,71.658081 89.057159,69.857834 
	C89.057159,73.685555 89.057159,77.098900 89.057159,81.001770 
z"/>
<path fill="#5F89BC" opacity="1.000000" stroke="none" 
	d="
M73.910568,69.061600 
	C71.902840,69.513336 70.310036,69.882736 67.824638,70.459137 
	C67.824638,63.397289 67.754684,56.845253 67.916122,50.298920 
	C67.935570,49.510010 69.075691,48.297173 69.920097,48.052353 
	C76.097145,46.261448 82.331329,44.667595 89.039246,42.880554 
	C89.039246,49.731739 89.207283,56.037952 88.895737,62.320389 
	C88.834312,63.559006 87.141678,65.304184 85.826118,65.781403 
	C82.096642,67.134239 78.172791,67.951241 73.910568,69.061600 
z"/>
<path fill="#D9D9D9" opacity="1.000000" stroke="none" 
	d="
M87.202034,39.049877 
	C80.800934,40.801037 74.798553,42.423317 68.009705,44.258160 
	C68.009705,37.113708 67.914391,30.701340 68.119675,24.298611 
	C68.148170,23.409878 69.514816,22.082470 70.509048,21.785603 
	C76.316078,20.051704 82.196732,18.564394 89.623703,16.572432 
	C88.892570,24.649580 88.246666,31.785286 87.202034,39.049877 
z"/>
<path fill="#D9D9D9" opacity="1.000000" stroke="none" 
	d="
M87.874451,97.257660 
	C88.495399,103.666931 88.795158,109.914673 88.851151,116.164597 
	C88.858925,117.032135 87.821426,118.461098 87.000519,118.695984 
	C80.868225,120.450661 74.668617,121.970116 67.990250,123.692162 
	C67.990250,116.878738 67.877922,110.756279 68.087944,104.644890 
	C68.128448,103.466049 69.217407,101.573853 70.187164,101.299629 
	C75.890251,99.687012 81.701302,98.456245 87.874451,97.257660 
z"/>
<path fill="#C8C8C8" opacity="1.000000" stroke="none" 
	d="
M71.018776,9.908275 
	C72.843086,9.557848 74.667397,9.207420 77.015533,8.756372 
	C77.015533,10.853049 77.015533,12.466009 77.066841,14.504103 
	C65.340607,18.244926 53.583767,21.636600 41.778912,24.851988 
	C32.526733,27.372080 23.215120,29.673954 13.535393,32.109875 
	C12.463832,31.741264 11.786790,31.335556 11.388520,30.478878 
	C26.040855,25.331205 40.434059,20.693373 54.777977,15.907817 
	C60.249733,14.082279 65.608513,11.918116 71.018776,9.908275 
z"/>
<path fill="#565656" opacity="1.000000" stroke="none" 
	d="
M54.700836,6.156073 
	C57.414848,5.011153 59.806210,4.023192 62.605503,2.866699 
	C62.760406,4.609068 62.872620,5.871248 62.786854,7.814484 
	C54.058052,11.710126 45.502563,14.861115 37.003006,18.156355 
	C27.634172,21.788612 18.316683,25.553314 8.976826,29.260323 
	C7.720802,28.680052 6.464778,28.099781 4.174575,27.041729 
	C21.660557,19.821898 38.019371,13.067465 54.700836,6.156073 
z"/>
<path fill="#888888" opacity="1.000000" stroke="none" 
	d="
M9.126120,29.514301 
	C18.316683,25.553314 27.634172,21.788612 37.003006,18.156355 
	C45.502563,14.861115 54.058052,11.710126 62.803097,8.209568 
	C64.524895,7.360177 66.013214,6.736538 67.544365,6.246846 
	C70.117821,5.423804 71.357994,6.326425 71.010292,9.506279 
	C65.608513,11.918116 60.249733,14.082279 54.777977,15.907817 
	C40.434059,20.693373 26.040855,25.331205 11.307438,30.181078 
	C10.390192,30.145592 9.832802,29.956936 9.126120,29.514301 
z"/>
</svg>